<?xml version="1.0" ?><svg xmlns="http://www.w3.org/2000/svg" xmlns:xlink="http://www.w3.org/1999/xlink" version="1.1" id="Layer_1" viewBox="0 0 24 24" enable-background="new 0 0 24 24" xml:space="preserve"><g><path d="M14.93,10.3c0.17-0.15,0.22-0.39,0.12-0.59c-0.11-0.24-0.37-0.36-0.62-0.29l-1.56,0.47c-0.08-0.15-0.21-0.26-0.37-0.32   c-0.18-0.07-0.37-0.06-0.55,0.01l-1.2,0.53c-0.29,0.13-0.45,0.42-0.42,0.71c-0.47-0.11-0.99-0.23-1.57-0.31   c-0.75-0.1-1.48-0.13-2.24-0.07c-0.24,0.02-0.44,0.22-0.44,0.47l0,6.22c0,0.29,0.23,0.52,0.52,0.52H17.4   c0.29,0,0.52-0.23,0.52-0.52l0-6.03c0,0,0,0,0,0c0-0.16-0.08-0.31-0.21-0.39c-0.13-0.09-0.3-0.1-0.44-0.04   c-1.37,0.59-2.58,0.84-3.77,0.78c0-0.08-0.01-0.16-0.04-0.24l1.4-0.84C14.88,10.35,14.91,10.33,14.93,10.3z M15.14,11.68   c0.72-0.13,1.45-0.36,2.25-0.7c0.06-0.02,0.1,0,0.12,0.01c0.02,0.01,0.06,0.04,0.06,0.11l0,6.03c0,0.1-0.08,0.18-0.18,0.18H6.6   c-0.1,0-0.18-0.08-0.18-0.18l0-6.22c0-0.07,0.05-0.12,0.12-0.13c0.27-0.02,0.52-0.03,0.77-0.03c1.23,0,2.23,0.22,3.22,0.47   c0.1,0.03,0.2,0.05,0.3,0.08c0.82,0.21,1.59,0.41,2.45,0.47c0,0,0,0,0,0C13.9,11.82,14.51,11.79,15.14,11.68z M14.7,10.05   c-0.01,0.01-0.02,0.01-0.03,0.02l-1.36,0.82l-0.09-0.2c-0.04-0.09-0.14-0.12-0.23-0.08c-0.09,0.04-0.12,0.14-0.08,0.23l0.21,0.46   c0.02,0.04,0.03,0.09,0.03,0.13c-0.77-0.07-1.48-0.25-2.23-0.45c-0.07-0.02-0.15-0.04-0.22-0.06v0c-0.08-0.19,0-0.41,0.19-0.49   l1.2-0.53c0.09-0.04,0.19-0.04,0.29-0.01c0.09,0.04,0.17,0.11,0.21,0.2c0,0,0,0,0,0l0.03,0.07c0,0.01,0.01,0.01,0.01,0.02   l0.11,0.24c0.04,0.09,0.14,0.12,0.23,0.09c0.09-0.04,0.12-0.14,0.09-0.23l-0.03-0.07l1.52-0.46c0.09-0.03,0.18,0.02,0.21,0.1   C14.77,9.92,14.76,10,14.7,10.05z"/><path d="M18.49,7.11h-0.4c-0.09,0-0.17,0.08-0.17,0.17c0,0.09,0.08,0.17,0.17,0.17h0.4c0.3,0,0.54-0.24,0.54-0.54V5.8   c0-0.15-0.06-0.28-0.16-0.38c-0.1-0.1-0.24-0.16-0.38-0.16c0,0,0,0,0,0L5.51,5.31c-0.3,0-0.54,0.24-0.54,0.54v1.05   c0,0.3,0.24,0.54,0.54,0.54h0.38v0.84C5.37,8.37,4.97,8.83,4.97,9.37v8.28c0,0.6,0.49,1.1,1.1,1.1h11.87c0.6,0,1.1-0.49,1.1-1.1   V9.37c0-0.6-0.49-1.1-1.1-1.1h-0.3v-1c0-0.09-0.08-0.17-0.17-0.17H6.85V6.65c0-0.09-0.08-0.17-0.17-0.17   c-0.09,0-0.17,0.08-0.17,0.17v0.63c0,0.09,0.08,0.17,0.17,0.17H17.3v0.83h-1.5c-0.09,0-0.17,0.08-0.17,0.17s0.08,0.17,0.17,0.17   h1.67h0.16h0.31c0.42,0,0.75,0.34,0.75,0.75v8.28c0,0.42-0.34,0.75-0.75,0.75H6.06c-0.42,0-0.75-0.34-0.75-0.75V9.37   c0-0.42,0.34-0.75,0.75-0.75c0,0,0,0,0,0h8.85c0.09,0,0.17-0.08,0.17-0.17s-0.08-0.17-0.17-0.17H6.24v-1   c0-0.09-0.08-0.17-0.17-0.17H5.51c-0.11,0-0.2-0.09-0.2-0.2V5.85c0-0.11,0.09-0.2,0.2-0.2L18.49,5.6c0,0,0,0,0,0   c0.05,0,0.1,0.02,0.14,0.06c0.04,0.04,0.06,0.09,0.06,0.14v1.11C18.69,7.02,18.6,7.11,18.49,7.11z"/><path d="M15.27,13.64c0.04,0,0.08-0.01,0.11-0.04l0.46-0.37c0.07-0.06,0.09-0.17,0.03-0.24c-0.06-0.07-0.17-0.09-0.24-0.03   l-0.46,0.37c-0.07,0.06-0.09,0.17-0.03,0.24C15.17,13.62,15.22,13.64,15.27,13.64z"/><path d="M8.83,11.8c-0.06-0.07-0.17-0.07-0.24-0.01c-0.07,0.06-0.07,0.17-0.01,0.24l0.3,0.32c0.03,0.04,0.08,0.05,0.12,0.05   c0.04,0,0.08-0.02,0.12-0.05c0.07-0.06,0.07-0.17,0.01-0.24L8.83,11.8z"/><path d="M9.77,14.16c-0.07,0.07-0.15,0.15-0.22,0.22l-0.03,0.03c-0.07,0.07-0.07,0.18,0,0.24c0.03,0.03,0.08,0.05,0.12,0.05   c0.04,0,0.09-0.02,0.12-0.05l0.03-0.03c0.07-0.07,0.15-0.15,0.22-0.22c0.07-0.07,0.07-0.18,0-0.24   C9.95,14.09,9.84,14.09,9.77,14.16z"/><path d="M11.79,15.08l-0.46,0.46c-0.07,0.07-0.07,0.17,0,0.24c0.03,0.03,0.08,0.05,0.12,0.05c0.04,0,0.09-0.02,0.12-0.05l0.46-0.46   c0.07-0.07,0.07-0.17,0-0.24C11.96,15.02,11.85,15.02,11.79,15.08z"/><path d="M13.08,13.84l-0.51-0.16c-0.09-0.03-0.19,0.02-0.21,0.11c-0.03,0.09,0.02,0.19,0.11,0.21l0.51,0.16   c0.02,0.01,0.03,0.01,0.05,0.01c0.07,0,0.14-0.05,0.16-0.12C13.22,13.96,13.17,13.87,13.08,13.84z"/><path d="M13.78,15.65c0.12,0.07,0.25,0.15,0.37,0.22c0.03,0.02,0.06,0.02,0.09,0.02c0.06,0,0.11-0.03,0.15-0.08   c0.05-0.08,0.02-0.19-0.06-0.23c-0.12-0.07-0.25-0.15-0.37-0.22c-0.08-0.05-0.19-0.02-0.23,0.06C13.67,15.49,13.7,15.6,13.78,15.65   z"/><path d="M16.68,14.81l0.25,0.03c0.01,0,0.01,0,0.02,0c0.09,0,0.16-0.06,0.17-0.15c0.01-0.09-0.06-0.18-0.15-0.19l-0.25-0.03   c-0.09-0.01-0.18,0.06-0.19,0.15C16.52,14.71,16.59,14.8,16.68,14.81z"/><path d="M9.02,15.81l-0.5-0.13c-0.09-0.02-0.18,0.03-0.21,0.12c-0.02,0.09,0.03,0.18,0.12,0.21l0.5,0.13   c0.01,0,0.03,0.01,0.04,0.01c0.08,0,0.14-0.05,0.17-0.13C9.17,15.93,9.11,15.84,9.02,15.81z"/><path d="M7.96,13.91l-0.28-0.11c-0.09-0.03-0.19,0.01-0.22,0.1c-0.03,0.09,0.01,0.19,0.1,0.22l0.28,0.11   c0.02,0.01,0.04,0.01,0.06,0.01c0.07,0,0.13-0.04,0.16-0.11C8.09,14.05,8.05,13.95,7.96,13.91z"/><path d="M11,12.89c-0.06-0.07-0.17-0.08-0.24-0.02c-0.07,0.06-0.08,0.17-0.02,0.24l0.18,0.2c0.03,0.04,0.08,0.06,0.13,0.06   c0.04,0,0.08-0.01,0.11-0.04c0.07-0.06,0.08-0.17,0.02-0.24L11,12.89z"/></g></svg>